<svg width="512" height="512" viewBox="0 0 512 512" fill="none" xmlns="http://www.w3.org/2000/svg">
<path d="M397.434 119.625C369.464 92.59 333.828 74.1777 295.031 66.7167C256.234 59.2557 216.019 63.0814 179.471 77.7101C142.924 92.3387 111.686 117.114 89.7086 148.9C67.7307 180.688 56 218.06 56 256.29C56 294.521 67.7307 331.893 89.7086 363.68C111.686 395.467 142.924 420.242 179.471 434.87C216.019 449.499 256.234 453.325 295.031 445.864C333.828 438.403 369.464 419.991 397.434 392.955C434.934 356.707 456 307.548 456 256.29C456 205.032 434.934 155.873 397.434 119.625ZM108.161 190.879C118.239 169.276 133.171 150.115 151.874 134.789C170.576 119.464 192.578 108.36 216.278 102.284C239.979 96.2086 264.782 95.3147 288.885 99.6672C312.988 104.02 335.784 113.509 355.616 127.445C306.524 122.964 245.07 147.213 195.252 195.272C176.45 213.414 160.521 234.138 147.979 256.773C130.921 237.16 117.455 214.874 108.161 190.879ZM218.434 415.095C180.474 405.266 147.384 382.679 125.106 351.39C102.829 320.102 92.8243 282.162 96.8886 244.385C117.524 287.7 169.616 327.061 237.979 344.633C263.501 351.323 289.914 354.285 316.343 353.419C307.361 377.431 294.236 399.8 277.524 419.576C257.699 421.515 237.673 419.937 218.434 414.92V415.095ZM342.889 231.382C336.149 206.606 325.674 182.923 311.797 161.095C337.79 156.623 364.379 156.445 390.434 160.567C402.096 176.171 410.693 193.712 415.797 212.317C425.985 249.009 422.3 288.009 405.404 322.311C388.507 356.612 359.508 383.965 323.616 399.457C351.979 360.711 361.07 297.188 342.889 231.382Z" fill="#6F26C2"/>
</svg>
