<svg xmlns="http://www.w3.org/2000/svg" width="53" height="85" viewBox="0 0 53 85" fill="none"><path d="M26.0771 0.424494C11.7888 0.525919 0.289693 12.1898 0.37844 26.4781C0.479865 40.7664 26.6476 84.4173 26.6476 84.4173C26.6476 84.4173 52.2194 40.4114 52.118 26.1231C52.0292 11.8222 40.3653 0.323069 26.0771 0.424494ZM26.3306 37.8884C19.4844 37.9392 13.8934 32.4242 13.8426 25.578C13.7919 18.7317 19.3069 13.1407 26.1531 13.09C32.9993 13.0393 38.5904 18.5543 38.6411 25.4005C38.6918 32.2467 33.1768 37.8377 26.3306 37.8884Z" fill="url(#paint0_linear_0_8532)"></path><path opacity="0.62" d="M14.1831 62.0274C20.5222 74.1984 26.6457 84.4043 26.6457 84.4043C26.6457 84.4043 45.3967 52.1384 50.7215 33.8945C44.8389 49.0322 26.6077 62.2175 14.1831 62.0274Z" fill="url(#paint1_linear_0_8532)"></path><defs><linearGradient id="paint0_linear_0_8532" x1="0.489523" y1="42.5914" x2="52.2333" y2="42.2343" gradientUnits="userSpaceOnUse"><stop stop-color="#FF636E"></stop><stop offset="1" stop-color="#FF406F"></stop></linearGradient><linearGradient id="paint1_linear_0_8532" x1="17.1334" y1="79.0011" x2="44.7042" y2="30.477" gradientUnits="userSpaceOnUse"><stop offset="0.1518" stop-color="white"></stop><stop offset="0.8912" stop-color="white" stop-opacity="0"></stop></linearGradient></defs></svg>