<svg xmlns="http://www.w3.org/2000/svg" width="52" height="85" viewBox="0 0 52 85" fill="none"><path d="M25.8752 0.771173C11.5869 0.872598 0.0877886 12.5365 0.176536 26.8248C0.277961 41.1131 26.4457 84.7639 26.4457 84.7639C26.4457 84.7639 52.0175 40.7581 51.9161 26.4698C51.8273 12.1815 40.1634 0.669748 25.8752 0.771173ZM26.1287 38.2478C19.2825 38.2985 13.6914 32.7835 13.6407 25.9373C13.59 19.0911 19.105 13.5 25.9512 13.4493C32.7974 13.3986 38.3885 18.9136 38.4392 25.7598C38.4899 32.606 32.9749 38.1971 26.1287 38.2478Z" fill="url(#paint0_linear_0_8535)"></path><path opacity="0.62" d="M13.9812 62.374C20.3203 74.5451 26.4438 84.751 26.4438 84.751C26.4438 84.751 45.1948 52.4851 50.5196 34.2412C44.637 49.3789 26.4058 62.5769 13.9812 62.374Z" fill="url(#paint1_linear_0_8535)"></path><defs><linearGradient id="paint0_linear_0_8535" x1="0.287581" y1="42.9446" x2="52.0311" y2="42.5876" gradientUnits="userSpaceOnUse"><stop stop-color="#FFC853"></stop><stop offset="0.4076" stop-color="#FFBB54"></stop><stop offset="0.9945" stop-color="#FFA157"></stop></linearGradient><linearGradient id="paint1_linear_0_8535" x1="16.9314" y1="79.3543" x2="44.502" y2="30.8303" gradientUnits="userSpaceOnUse"><stop offset="0.1518" stop-color="white"></stop><stop offset="0.8912" stop-color="white" stop-opacity="0"></stop></linearGradient></defs></svg>