<svg xmlns="http://www.w3.org/2000/svg" width="53" height="85" viewBox="0 0 53 85" fill="none"><path d="M26.3261 0.84051C12.0378 0.941935 0.538716 12.6058 0.627463 26.8941C0.728889 41.1824 26.8966 84.8333 26.8966 84.8333C26.8966 84.8333 52.4684 40.8274 52.367 26.5391C52.2783 12.2382 40.6143 0.739084 26.3261 0.84051ZM26.5796 38.3045C19.7334 38.3552 14.1424 32.8402 14.0917 25.994C14.0409 19.1478 19.5559 13.5567 26.4021 13.506C33.2483 13.4553 38.8394 18.9703 38.8901 25.8165C38.9408 32.6754 33.4258 38.2537 26.5796 38.3045Z" fill="url(#paint0_linear_0_8538)"></path><path opacity="0.62" d="M14.4321 62.4434C20.7712 74.6144 26.8947 84.8203 26.8947 84.8203C26.8947 84.8203 45.6458 52.5544 50.9706 34.3105C45.0879 49.4483 26.8567 62.6335 14.4321 62.4434Z" fill="url(#paint1_linear_0_8538)"></path><defs><linearGradient id="paint0_linear_0_8538" x1="0.739704" y1="43.0098" x2="52.4834" y2="42.6528" gradientUnits="userSpaceOnUse"><stop stop-color="#7497F3"></stop><stop offset="1" stop-color="#856EF4"></stop></linearGradient><linearGradient id="paint1_linear_0_8538" x1="17.3835" y1="79.4195" x2="44.9542" y2="30.8954" gradientUnits="userSpaceOnUse"><stop offset="0.1518" stop-color="white"></stop><stop offset="0.8912" stop-color="white" stop-opacity="0"></stop></linearGradient></defs></svg>