<?xml version="1.0" encoding="UTF-8"?>
<svg xmlns="http://www.w3.org/2000/svg" width="286" height="18" viewBox="0 0 286 18" fill="none">
  <path d="M263.002 1.08978C256.747 0.816628 250.493 0.642971 244.239 0.425093C242.176 0.348431 240.103 0.382494 238.041 0.361106C233.563 0.31307 229.086 0.276089 224.608 0.228053C222.118 0.202633 219.618 0.166335 217.128 0.15197C216.401 0.1418 215.675 0.153739 214.948 0.165679C213.325 0.192367 211.701 0.241164 210.078 0.278907C202.697 0.411287 195.306 0.543843 187.924 0.665168C186.162 0.694138 184.411 0.767152 182.649 0.818233C178.292 0.945143 173.945 1.08293 169.599 1.20967C164.686 1.35676 159.784 1.45946 154.872 1.67289C146.928 2.00251 138.995 2.343 131.051 2.67262C126.449 2.8699 121.857 3.01173 117.257 3.27534C109.336 3.73726 101.426 4.18796 93.5058 4.63883C89.1826 4.88681 84.8589 5.10164 80.5369 5.42701C72.3519 6.03704 64.1666 6.63601 55.9816 7.24604C51.6062 7.57229 47.2298 7.83221 42.8673 8.29094C34.7183 9.14365 26.58 9.99618 18.4309 10.8489C16.671 11.0326 14.9111 11.2164 13.1511 11.4001C9.64193 11.7674 6.13564 12.3116 2.63875 12.7782C2.41498 12.8151 2.19121 12.8519 1.97812 12.8886C1.56353 13.017 1.19331 13.2443 0.888808 13.57C0.437308 14.0529 0.180985 14.7095 0.192252 15.3949C0.203336 16.0692 0.481282 16.7281 0.948591 17.207C1.37227 17.6313 2.10516 18.0173 2.72343 17.9298C6.9559 17.3626 11.1773 16.7735 15.4118 16.3279C19.3477 15.9204 23.2728 15.5021 27.2087 15.0946C31.4966 14.6481 35.7844 14.2017 40.0723 13.7552C41.8002 13.572 43.5274 13.3446 45.2669 13.2165C51.9579 12.7195 58.6492 12.2335 65.3405 11.7476C69.513 11.4357 73.6858 11.1349 77.8583 10.823C79.5871 10.6951 81.3049 10.5452 83.0341 10.4394C89.6629 10.054 96.3027 9.69052 102.932 9.32723C106.956 9.10627 110.97 8.87442 114.994 8.65346C116.35 8.57589 117.695 8.48744 119.051 8.43198C126.215 8.13728 133.38 7.85365 140.545 7.57001C144.549 7.40468 148.542 7.25057 152.546 7.08523C153.967 7.02872 155.397 6.94992 156.817 6.91551C164.208 6.71662 171.598 6.51774 178.989 6.31886C183.603 6.18773 188.206 6.06784 192.82 6.00304C200.672 5.8961 208.523 5.77811 216.364 5.67134C217.913 5.64588 219.463 5.68675 221.012 5.71657C225.351 5.77794 229.68 5.83949 234.018 5.90086C237.267 5.94698 240.516 5.9931 243.776 6.03904C246.084 6.06744 248.384 6.20657 250.693 6.30131C257.482 6.56568 264.272 6.85216 271.051 7.17198C272.772 7.25427 274.494 7.35866 276.216 7.46305C278.067 7.57638 279.917 7.67867 281.757 7.85851C282.047 7.89799 282.325 7.9487 282.615 8.01029C283.344 8.15312 284.037 8.09748 284.682 7.69985C285.275 7.32521 285.713 6.70982 285.894 6.0102C286.255 4.54464 285.374 2.99995 283.958 2.61409C282.713 2.2807 281.429 2.15806 280.155 2.0463C279.278 1.97226 278.411 1.88698 277.534 1.81294C275.854 1.66363 274.165 1.60293 272.485 1.49784C269.32 1.31766 266.156 1.22592 263.002 1.08978Z" fill="#6722B5"></path>
</svg>
